<?xml version="1.0" encoding="UTF-8"?>
<svg xmlns="http://www.w3.org/2000/svg" xmlns:xlink="http://www.w3.org/1999/xlink" width="200pt" height="200pt" viewBox="0 0 200 200" version="1.1">
<g id="surface1">
<rect x="0" y="0" width="200" height="200" style="fill:rgb(100%,100%,100%);fill-opacity:1;stroke:none;"/>
<path style="fill:none;stroke-width:0.1;stroke-linecap:butt;stroke-linejoin:miter;stroke:rgb(0%,0%,0%);stroke-opacity:1;stroke-miterlimit:10;" d="M 150 75 C 150 102.613281 127.613281 125 100 125 C 72.386719 125 50 102.613281 50 75 C 50 47.386719 72.386719 25 100 25 C 127.613281 25 150 47.386719 150 75 "/>
<path style="fill:none;stroke-width:0.2;stroke-linecap:butt;stroke-linejoin:miter;stroke:rgb(0%,0%,0%);stroke-opacity:1;stroke-miterlimit:10;" d="M 147.5 75 C 147.5 101.234375 126.234375 122.5 100 122.5 C 73.765625 122.5 52.5 101.234375 52.5 75 C 52.5 48.765625 73.765625 27.5 100 27.5 C 126.234375 27.5 147.5 48.765625 147.5 75 "/>
<path style="fill:none;stroke-width:0.3;stroke-linecap:butt;stroke-linejoin:miter;stroke:rgb(0%,0%,0%);stroke-opacity:1;stroke-miterlimit:10;" d="M 145 75 C 145 99.851563 124.851563 120 100 120 C 75.148438 120 55 99.851563 55 75 C 55 50.148438 75.148438 30 100 30 C 124.851563 30 145 50.148438 145 75 "/>
<path style="fill:none;stroke-width:0.4;stroke-linecap:butt;stroke-linejoin:miter;stroke:rgb(0%,0%,0%);stroke-opacity:1;stroke-miterlimit:10;" d="M 142.5 75 C 142.5 98.472656 123.472656 117.5 100 117.5 C 76.527344 117.5 57.5 98.472656 57.5 75 C 57.5 51.527344 76.527344 32.5 100 32.5 C 123.472656 32.5 142.5 51.527344 142.5 75 "/>
<path style="fill:none;stroke-width:0.5;stroke-linecap:butt;stroke-linejoin:miter;stroke:rgb(0%,0%,0%);stroke-opacity:1;stroke-miterlimit:10;" d="M 140 75 C 140 97.089844 122.089844 115 100 115 C 77.910156 115 60 97.089844 60 75 C 60 52.910156 77.910156 35 100 35 C 122.089844 35 140 52.910156 140 75 "/>
<path style="fill:none;stroke-width:0.6;stroke-linecap:butt;stroke-linejoin:miter;stroke:rgb(0%,0%,0%);stroke-opacity:1;stroke-miterlimit:10;" d="M 137.5 75 C 137.5 95.710938 120.710938 112.5 100 112.5 C 79.289063 112.5 62.5 95.710938 62.5 75 C 62.5 54.289063 79.289063 37.5 100 37.5 C 120.710938 37.5 137.5 54.289063 137.5 75 "/>
<path style="fill:none;stroke-width:0.7;stroke-linecap:butt;stroke-linejoin:miter;stroke:rgb(0%,0%,0%);stroke-opacity:1;stroke-miterlimit:10;" d="M 135 75 C 135 94.328125 119.328125 110 100 110 C 80.671875 110 65 94.328125 65 75 C 65 55.671875 80.671875 40 100 40 C 119.328125 40 135 55.671875 135 75 "/>
<path style="fill:none;stroke-width:0.8;stroke-linecap:butt;stroke-linejoin:miter;stroke:rgb(0%,0%,0%);stroke-opacity:1;stroke-miterlimit:10;" d="M 132.5 75 C 132.5 92.949219 117.949219 107.5 100 107.5 C 82.050781 107.5 67.5 92.949219 67.5 75 C 67.5 57.050781 82.050781 42.5 100 42.5 C 117.949219 42.5 132.5 57.050781 132.5 75 "/>
<path style="fill:none;stroke-width:0.9;stroke-linecap:butt;stroke-linejoin:miter;stroke:rgb(0%,0%,0%);stroke-opacity:1;stroke-miterlimit:10;" d="M 130 75 C 130 91.570313 116.570313 105 100 105 C 83.429688 105 70 91.570313 70 75 C 70 58.429688 83.429688 45 100 45 C 116.570313 45 130 58.429688 130 75 "/>
<path style="fill:none;stroke-width:1;stroke-linecap:butt;stroke-linejoin:miter;stroke:rgb(0%,0%,0%);stroke-opacity:1;stroke-miterlimit:10;" d="M 127.5 75 C 127.5 90.1875 115.1875 102.5 100 102.5 C 84.8125 102.5 72.5 90.1875 72.5 75 C 72.5 59.8125 84.8125 47.5 100 47.5 C 115.1875 47.5 127.5 59.8125 127.5 75 "/>
<path style="fill:none;stroke-width:1.1;stroke-linecap:butt;stroke-linejoin:miter;stroke:rgb(0%,0%,0%);stroke-opacity:1;stroke-miterlimit:10;" d="M 125 75 C 125 88.808594 113.808594 100 100 100 C 86.191406 100 75 88.808594 75 75 C 75 61.191406 86.191406 50 100 50 C 113.808594 50 125 61.191406 125 75 "/>
<path style="fill:none;stroke-width:1.2;stroke-linecap:butt;stroke-linejoin:miter;stroke:rgb(0%,0%,0%);stroke-opacity:1;stroke-miterlimit:10;" d="M 122.5 75 C 122.5 87.425781 112.425781 97.5 100 97.5 C 87.574219 97.5 77.5 87.425781 77.5 75 C 77.5 62.574219 87.574219 52.5 100 52.5 C 112.425781 52.5 122.5 62.574219 122.5 75 "/>
<path style="fill:none;stroke-width:1.3;stroke-linecap:butt;stroke-linejoin:miter;stroke:rgb(0%,0%,0%);stroke-opacity:1;stroke-miterlimit:10;" d="M 120 75 C 120 86.046875 111.046875 95 100 95 C 88.953125 95 80 86.046875 80 75 C 80 63.953125 88.953125 55 100 55 C 111.046875 55 120 63.953125 120 75 "/>
<path style="fill:none;stroke-width:1.4;stroke-linecap:butt;stroke-linejoin:miter;stroke:rgb(0%,0%,0%);stroke-opacity:1;stroke-miterlimit:10;" d="M 117.5 75 C 117.5 84.664063 109.664063 92.5 100 92.5 C 90.335938 92.5 82.5 84.664063 82.5 75 C 82.5 65.335938 90.335938 57.5 100 57.5 C 109.664063 57.5 117.5 65.335938 117.5 75 "/>
<path style="fill:none;stroke-width:1.5;stroke-linecap:butt;stroke-linejoin:miter;stroke:rgb(0%,0%,0%);stroke-opacity:1;stroke-miterlimit:10;" d="M 115 75 C 115 83.285156 108.285156 90 100 90 C 91.714844 90 85 83.285156 85 75 C 85 66.714844 91.714844 60 100 60 C 108.285156 60 115 66.714844 115 75 "/>
<path style="fill:none;stroke-width:1.6;stroke-linecap:butt;stroke-linejoin:miter;stroke:rgb(0%,0%,0%);stroke-opacity:1;stroke-miterlimit:10;" d="M 112.5 75 C 112.5 81.902344 106.902344 87.5 100 87.5 C 93.097656 87.5 87.5 81.902344 87.5 75 C 87.5 68.097656 93.097656 62.5 100 62.5 C 106.902344 62.5 112.5 68.097656 112.5 75 "/>
<path style="fill:none;stroke-width:1.7;stroke-linecap:butt;stroke-linejoin:miter;stroke:rgb(0%,0%,0%);stroke-opacity:1;stroke-miterlimit:10;" d="M 110 75 C 110 80.523438 105.523438 85 100 85 C 94.476563 85 90 80.523438 90 75 C 90 69.476563 94.476563 65 100 65 C 105.523438 65 110 69.476563 110 75 "/>
<path style="fill:none;stroke-width:1.8;stroke-linecap:butt;stroke-linejoin:miter;stroke:rgb(0%,0%,0%);stroke-opacity:1;stroke-miterlimit:10;" d="M 107.5 75 C 107.5 79.140625 104.140625 82.5 100 82.5 C 95.859375 82.5 92.5 79.140625 92.5 75 C 92.5 70.859375 95.859375 67.5 100 67.5 C 104.140625 67.5 107.5 70.859375 107.5 75 "/>
<path style="fill:none;stroke-width:1.9;stroke-linecap:butt;stroke-linejoin:miter;stroke:rgb(0%,0%,0%);stroke-opacity:1;stroke-miterlimit:10;" d="M 105 75 C 105 81.667969 95 81.667969 95 75 C 95 68.332031 105 68.332031 105 75 "/>
<path style="fill:none;stroke-width:2;stroke-linecap:butt;stroke-linejoin:miter;stroke:rgb(0%,0%,0%);stroke-opacity:1;stroke-miterlimit:10;" d="M 102.5 75 C 102.5 78.332031 97.5 78.332031 97.5 75 C 97.5 71.667969 102.5 71.667969 102.5 75 "/>
<path style="fill:none;stroke-width:2.1;stroke-linecap:butt;stroke-linejoin:miter;stroke:rgb(0%,0%,0%);stroke-opacity:1;stroke-miterlimit:10;" d="M 100 75 L 100 75 "/>
<path style="fill:none;stroke-width:2.2;stroke-linecap:butt;stroke-linejoin:miter;stroke:rgb(0%,0%,0%);stroke-opacity:1;stroke-miterlimit:10;" d="M 100 75 L 100 75 "/>
<path style="fill:none;stroke-width:2.3;stroke-linecap:butt;stroke-linejoin:miter;stroke:rgb(0%,0%,0%);stroke-opacity:1;stroke-miterlimit:10;" d="M 100 75 L 100 75 "/>
<path style="fill:none;stroke-width:2.4;stroke-linecap:butt;stroke-linejoin:miter;stroke:rgb(0%,0%,0%);stroke-opacity:1;stroke-miterlimit:10;" d="M 100 75 L 100 75 "/>
<path style="fill:none;stroke-width:2.5;stroke-linecap:butt;stroke-linejoin:miter;stroke:rgb(0%,0%,0%);stroke-opacity:1;stroke-miterlimit:10;" d="M 100 75 L 100 75 "/>
<path style="fill:none;stroke-width:2.6;stroke-linecap:butt;stroke-linejoin:miter;stroke:rgb(0%,0%,0%);stroke-opacity:1;stroke-miterlimit:10;" d="M 100 75 L 100 75 "/>
<path style="fill:none;stroke-width:2.7;stroke-linecap:butt;stroke-linejoin:miter;stroke:rgb(0%,0%,0%);stroke-opacity:1;stroke-miterlimit:10;" d="M 100 75 L 100 75 "/>
<path style="fill:none;stroke-width:2.8;stroke-linecap:butt;stroke-linejoin:miter;stroke:rgb(0%,0%,0%);stroke-opacity:1;stroke-miterlimit:10;" d="M 100 75 L 100 75 "/>
<path style="fill:none;stroke-width:2.9;stroke-linecap:butt;stroke-linejoin:miter;stroke:rgb(0%,0%,0%);stroke-opacity:1;stroke-miterlimit:10;" d="M 100 75 L 100 75 "/>
<path style="fill:none;stroke-width:3;stroke-linecap:butt;stroke-linejoin:miter;stroke:rgb(0%,0%,0%);stroke-opacity:1;stroke-miterlimit:10;" d="M 100 75 L 100 75 "/>
<path style="fill:none;stroke-width:0.1;stroke-linecap:butt;stroke-linejoin:miter;stroke:rgb(0%,0%,0%);stroke-opacity:1;stroke-miterlimit:10;" d="M 150 120 C 150 147.613281 127.613281 170 100 170 C 72.386719 170 50 147.613281 50 120 C 50 92.386719 72.386719 70 100 70 C 127.613281 70 150 92.386719 150 120 "/>
<path style="fill:none;stroke-width:0.2;stroke-linecap:butt;stroke-linejoin:miter;stroke:rgb(0%,0%,0%);stroke-opacity:1;stroke-miterlimit:10;" d="M 147.5 120 C 147.5 146.234375 126.234375 167.5 100 167.5 C 73.765625 167.5 52.5 146.234375 52.5 120 C 52.5 93.765625 73.765625 72.5 100 72.5 C 126.234375 72.5 147.5 93.765625 147.5 120 "/>
<path style="fill:none;stroke-width:0.3;stroke-linecap:butt;stroke-linejoin:miter;stroke:rgb(0%,0%,0%);stroke-opacity:1;stroke-miterlimit:10;" d="M 145 120 C 145 144.851563 124.851563 165 100 165 C 75.148438 165 55 144.851563 55 120 C 55 95.148438 75.148438 75 100 75 C 124.851563 75 145 95.148438 145 120 "/>
<path style="fill:none;stroke-width:0.4;stroke-linecap:butt;stroke-linejoin:miter;stroke:rgb(0%,0%,0%);stroke-opacity:1;stroke-miterlimit:10;" d="M 142.5 120 C 142.5 143.472656 123.472656 162.5 100 162.5 C 76.527344 162.5 57.5 143.472656 57.5 120 C 57.5 96.527344 76.527344 77.5 100 77.5 C 123.472656 77.5 142.5 96.527344 142.5 120 "/>
<path style="fill:none;stroke-width:0.5;stroke-linecap:butt;stroke-linejoin:miter;stroke:rgb(0%,0%,0%);stroke-opacity:1;stroke-miterlimit:10;" d="M 140 120 C 140 142.089844 122.089844 160 100 160 C 77.910156 160 60 142.089844 60 120 C 60 97.910156 77.910156 80 100 80 C 122.089844 80 140 97.910156 140 120 "/>
<path style="fill:none;stroke-width:0.6;stroke-linecap:butt;stroke-linejoin:miter;stroke:rgb(0%,0%,0%);stroke-opacity:1;stroke-miterlimit:10;" d="M 137.5 120 C 137.5 140.710938 120.710938 157.5 100 157.5 C 79.289063 157.5 62.5 140.710938 62.5 120 C 62.5 99.289063 79.289063 82.5 100 82.5 C 120.710938 82.5 137.5 99.289063 137.5 120 "/>
<path style="fill:none;stroke-width:0.7;stroke-linecap:butt;stroke-linejoin:miter;stroke:rgb(0%,0%,0%);stroke-opacity:1;stroke-miterlimit:10;" d="M 135 120 C 135 139.328125 119.328125 155 100 155 C 80.671875 155 65 139.328125 65 120 C 65 100.671875 80.671875 85 100 85 C 119.328125 85 135 100.671875 135 120 "/>
<path style="fill:none;stroke-width:0.8;stroke-linecap:butt;stroke-linejoin:miter;stroke:rgb(0%,0%,0%);stroke-opacity:1;stroke-miterlimit:10;" d="M 132.5 120 C 132.5 137.949219 117.949219 152.5 100 152.5 C 82.050781 152.5 67.5 137.949219 67.5 120 C 67.5 102.050781 82.050781 87.5 100 87.5 C 117.949219 87.5 132.5 102.050781 132.5 120 "/>
<path style="fill:none;stroke-width:0.9;stroke-linecap:butt;stroke-linejoin:miter;stroke:rgb(0%,0%,0%);stroke-opacity:1;stroke-miterlimit:10;" d="M 130 120 C 130 136.570313 116.570313 150 100 150 C 83.429688 150 70 136.570313 70 120 C 70 103.429688 83.429688 90 100 90 C 116.570313 90 130 103.429688 130 120 "/>
<path style="fill:none;stroke-width:1;stroke-linecap:butt;stroke-linejoin:miter;stroke:rgb(0%,0%,0%);stroke-opacity:1;stroke-miterlimit:10;" d="M 127.5 120 C 127.5 135.1875 115.1875 147.5 100 147.5 C 84.8125 147.5 72.5 135.1875 72.5 120 C 72.5 104.8125 84.8125 92.5 100 92.5 C 115.1875 92.5 127.5 104.8125 127.5 120 "/>
<path style="fill:none;stroke-width:1.1;stroke-linecap:butt;stroke-linejoin:miter;stroke:rgb(0%,0%,0%);stroke-opacity:1;stroke-miterlimit:10;" d="M 125 120 C 125 133.808594 113.808594 145 100 145 C 86.191406 145 75 133.808594 75 120 C 75 106.191406 86.191406 95 100 95 C 113.808594 95 125 106.191406 125 120 "/>
<path style="fill:none;stroke-width:1.2;stroke-linecap:butt;stroke-linejoin:miter;stroke:rgb(0%,0%,0%);stroke-opacity:1;stroke-miterlimit:10;" d="M 122.5 120 C 122.5 132.425781 112.425781 142.5 100 142.5 C 87.574219 142.5 77.5 132.425781 77.5 120 C 77.5 107.574219 87.574219 97.5 100 97.5 C 112.425781 97.5 122.5 107.574219 122.5 120 "/>
<path style="fill:none;stroke-width:1.3;stroke-linecap:butt;stroke-linejoin:miter;stroke:rgb(0%,0%,0%);stroke-opacity:1;stroke-miterlimit:10;" d="M 120 120 C 120 131.046875 111.046875 140 100 140 C 88.953125 140 80 131.046875 80 120 C 80 108.953125 88.953125 100 100 100 C 111.046875 100 120 108.953125 120 120 "/>
<path style="fill:none;stroke-width:1.4;stroke-linecap:butt;stroke-linejoin:miter;stroke:rgb(0%,0%,0%);stroke-opacity:1;stroke-miterlimit:10;" d="M 117.5 120 C 117.5 129.664063 109.664063 137.5 100 137.5 C 90.335938 137.5 82.5 129.664063 82.5 120 C 82.5 110.335938 90.335938 102.5 100 102.5 C 109.664063 102.5 117.5 110.335938 117.5 120 "/>
<path style="fill:none;stroke-width:1.5;stroke-linecap:butt;stroke-linejoin:miter;stroke:rgb(0%,0%,0%);stroke-opacity:1;stroke-miterlimit:10;" d="M 115 120 C 115 128.285156 108.285156 135 100 135 C 91.714844 135 85 128.285156 85 120 C 85 111.714844 91.714844 105 100 105 C 108.285156 105 115 111.714844 115 120 "/>
<path style="fill:none;stroke-width:1.6;stroke-linecap:butt;stroke-linejoin:miter;stroke:rgb(0%,0%,0%);stroke-opacity:1;stroke-miterlimit:10;" d="M 112.5 120 C 112.5 126.902344 106.902344 132.5 100 132.5 C 93.097656 132.5 87.5 126.902344 87.5 120 C 87.5 113.097656 93.097656 107.5 100 107.5 C 106.902344 107.5 112.5 113.097656 112.5 120 "/>
<path style="fill:none;stroke-width:1.7;stroke-linecap:butt;stroke-linejoin:miter;stroke:rgb(0%,0%,0%);stroke-opacity:1;stroke-miterlimit:10;" d="M 110 120 C 110 125.523438 105.523438 130 100 130 C 94.476563 130 90 125.523438 90 120 C 90 114.476563 94.476563 110 100 110 C 105.523438 110 110 114.476563 110 120 "/>
<path style="fill:none;stroke-width:1.8;stroke-linecap:butt;stroke-linejoin:miter;stroke:rgb(0%,0%,0%);stroke-opacity:1;stroke-miterlimit:10;" d="M 107.5 120 C 107.5 124.140625 104.140625 127.5 100 127.5 C 95.859375 127.5 92.5 124.140625 92.5 120 C 92.5 115.859375 95.859375 112.5 100 112.5 C 104.140625 112.5 107.5 115.859375 107.5 120 "/>
<path style="fill:none;stroke-width:1.9;stroke-linecap:butt;stroke-linejoin:miter;stroke:rgb(0%,0%,0%);stroke-opacity:1;stroke-miterlimit:10;" d="M 105 120 C 105 126.667969 95 126.667969 95 120 C 95 113.332031 105 113.332031 105 120 "/>
<path style="fill:none;stroke-width:2;stroke-linecap:butt;stroke-linejoin:miter;stroke:rgb(0%,0%,0%);stroke-opacity:1;stroke-miterlimit:10;" d="M 102.5 120 C 102.5 123.332031 97.5 123.332031 97.5 120 C 97.5 116.667969 102.5 116.667969 102.5 120 "/>
<path style="fill:none;stroke-width:2.1;stroke-linecap:butt;stroke-linejoin:miter;stroke:rgb(0%,0%,0%);stroke-opacity:1;stroke-miterlimit:10;" d="M 100 120 L 100 120 "/>
<path style="fill:none;stroke-width:2.2;stroke-linecap:butt;stroke-linejoin:miter;stroke:rgb(0%,0%,0%);stroke-opacity:1;stroke-miterlimit:10;" d="M 100 120 L 100 120 "/>
<path style="fill:none;stroke-width:2.3;stroke-linecap:butt;stroke-linejoin:miter;stroke:rgb(0%,0%,0%);stroke-opacity:1;stroke-miterlimit:10;" d="M 100 120 L 100 120 "/>
<path style="fill:none;stroke-width:2.4;stroke-linecap:butt;stroke-linejoin:miter;stroke:rgb(0%,0%,0%);stroke-opacity:1;stroke-miterlimit:10;" d="M 100 120 L 100 120 "/>
<path style="fill:none;stroke-width:2.5;stroke-linecap:butt;stroke-linejoin:miter;stroke:rgb(0%,0%,0%);stroke-opacity:1;stroke-miterlimit:10;" d="M 100 120 L 100 120 "/>
<path style="fill:none;stroke-width:2.6;stroke-linecap:butt;stroke-linejoin:miter;stroke:rgb(0%,0%,0%);stroke-opacity:1;stroke-miterlimit:10;" d="M 100 120 L 100 120 "/>
<path style="fill:none;stroke-width:2.7;stroke-linecap:butt;stroke-linejoin:miter;stroke:rgb(0%,0%,0%);stroke-opacity:1;stroke-miterlimit:10;" d="M 100 120 L 100 120 "/>
<path style="fill:none;stroke-width:2.8;stroke-linecap:butt;stroke-linejoin:miter;stroke:rgb(0%,0%,0%);stroke-opacity:1;stroke-miterlimit:10;" d="M 100 120 L 100 120 "/>
<path style="fill:none;stroke-width:2.9;stroke-linecap:butt;stroke-linejoin:miter;stroke:rgb(0%,0%,0%);stroke-opacity:1;stroke-miterlimit:10;" d="M 100 120 L 100 120 "/>
<path style="fill:none;stroke-width:3;stroke-linecap:butt;stroke-linejoin:miter;stroke:rgb(0%,0%,0%);stroke-opacity:1;stroke-miterlimit:10;" d="M 100 120 L 100 120 "/>
</g>
</svg>
